
<svg width="444px" height="408px" viewBox="-22 110 444 408" version="1.1" xmlns="http://www.w3.org/2000/svg" xmlns:xlink="http://www.w3.org/1999/xlink">
    <!-- Generator: Sketch 41.2 (35397) - http://www.bohemiancoding.com/sketch -->
    <desc>Created with Sketch.</desc>
    <defs>
        <rect id="path-1" x="35" y="0" width="373" height="267"></rect>
        <mask id="mask-2" maskContentUnits="userSpaceOnUse" maskUnits="objectBoundingBox" x="0" y="0" width="373" height="267" fill="white">
            <use xlink:href="#path-1"></use>
        </mask>
    </defs>
    <g id="FTP" stroke="none" stroke-width="1" fill="none" fill-rule="evenodd" transform="translate(-21.000000, 110.000000)">
        <polygon id="Path" fill="#3173C1" points="94.0719044 408 94.0719044 390.291436 -2.84217094e-14 390.291436 -2.84217094e-14 354.886765 94.0719044 354.886765 94.0719044 337.178893 172.053883 337.178893 172.053883 301.784602 207.495075 301.784602 207.495075 266.344637 242.923799 266.344637 242.923799 301.784602 278.364991 301.784602 278.364991 337.178893 356.34697 337.178893 356.34697 354.886765 443 354.886765 443 390.291436 356.34697 390.291436 356.34697 408"></polygon>
        <use id="Rectangle" stroke="#3173C1" mask="url(#mask-2)" stroke-width="30" xlink:href="#path-1"></use>
        <path d="M108.032227,102.860352 L157.797852,102.860352 L157.797852,116.856934 L128.249512,116.856934 L128.249512,128.231934 L153.487793,128.231934 L153.487793,141.384277 L128.249512,141.384277 L128.249512,168 L108.032227,168 L108.032227,102.860352 Z M192.500488,102.860352 L253.685547,102.860352 L253.685547,118.945312 L233.157227,118.945312 L233.157227,168 L213.028809,168 L213.028809,118.945312 L192.500488,118.945312 L192.500488,102.860352 Z M291.143066,102.860352 L324.601562,102.860352 C331.888708,102.860352 337.34658,104.593244 340.975342,108.059082 C344.604103,111.52492 346.418457,116.456999 346.418457,122.855469 C346.418457,129.431674 344.441182,134.571108 340.486572,138.273926 C336.531963,141.976744 330.49646,143.828125 322.379883,143.828125 L311.360352,143.828125 L311.360352,168 L291.143066,168 L291.143066,102.860352 Z M311.360352,130.631348 L316.29248,130.631348 C320.173034,130.631348 322.898267,129.957445 324.468262,128.609619 C326.038257,127.261793 326.823242,125.536306 326.823242,123.433105 C326.823242,121.38915 326.141934,119.656257 324.779297,118.234375 C323.41666,116.812493 320.854348,116.101562 317.092285,116.101562 L311.360352,116.101562 L311.360352,130.631348 Z" fill="#FF9400"></path>
    </g>
</svg>